<svg aria-hidden="true" style="position: absolute; width: 0; height: 0; overflow: hidden;" version="1.1" xmlns="http://www.w3.org/2000/svg" xmlns:xlink="http://www.w3.org/1999/xlink">
<defs>
<symbol id="logo" viewBox="0 0 458 32">
<path d="M439.764 0.445h14.888c0.772 0 1.408 0.252 1.912 0.756 0.534 0.474 0.8 1.096 0.8 1.867 0 0.741-0.266 1.348-0.8 1.822-0.504 0.444-1.14 0.667-1.912 0.667h-12.444l0.4-0.756v8.667l-0.356-0.356h10.4c0.772 0 1.408 0.252 1.912 0.756 0.534 0.474 0.8 1.096 0.8 1.867 0 0.741-0.266 1.348-0.8 1.822-0.504 0.444-1.14 0.667-1.912 0.667h-10.266l0.222-0.356v8.978l-0.356-0.4h12.4c0.772 0 1.408 0.267 1.912 0.8 0.534 0.504 0.8 1.096 0.8 1.778 0 0.741-0.266 1.348-0.8 1.822-0.504 0.474-1.14 0.711-1.912 0.711h-14.888c-0.77 0-1.422-0.252-1.956-0.755-0.504-0.533-0.756-1.185-0.756-1.956v-25.689c0-0.77 0.252-1.407 0.756-1.911 0.534-0.533 1.186-0.8 1.956-0.8z"></path>
<path d="M405.964 31.556c-0.83 0-1.512-0.252-2.046-0.755-0.504-0.533-0.754-1.185-0.754-1.956v-25.689c0-0.77 0.25-1.407 0.754-1.911 0.534-0.533 1.186-0.8 1.956-0.8h14.444c0.772 0 1.408 0.252 1.912 0.756 0.534 0.474 0.8 1.096 0.8 1.867 0 0.652-0.266 1.23-0.8 1.733-0.504 0.504-1.14 0.756-1.912 0.756h-12l0.4-0.533v8.933l-0.31-0.578h9.91c0.772 0 1.408 0.252 1.912 0.756 0.534 0.474 0.8 1.096 0.8 1.867 0 0.652-0.266 1.23-0.8 1.733-0.504 0.504-1.14 0.756-1.912 0.756h-10l0.4-0.4v10.756c0 0.77-0.28 1.422-0.844 1.956-0.534 0.504-1.17 0.755-1.91 0.755z"></path>
<path d="M387.546 28.845c0 0.77-0.282 1.422-0.844 1.956-0.564 0.504-1.216 0.755-1.956 0.755-0.83 0-1.496-0.252-2-0.755-0.504-0.533-0.756-1.185-0.756-1.956v-25.689c0-0.77 0.266-1.407 0.8-1.911 0.534-0.533 1.216-0.8 2.044-0.8 0.712 0 1.334 0.267 1.868 0.8 0.562 0.504 0.844 1.141 0.844 1.911v25.689z"></path>
<path d="M365.256 26.356c0.77 0 1.406 0.252 1.91 0.756 0.534 0.474 0.8 1.096 0.8 1.867 0 0.741-0.266 1.363-0.8 1.867-0.504 0.474-1.14 0.711-1.91 0.711h-14.446c-0.77 0-1.422-0.252-1.954-0.755-0.504-0.533-0.756-1.185-0.756-1.956v-25.689c0-0.77 0.266-1.407 0.8-1.911 0.532-0.533 1.214-0.8 2.044-0.8 0.712 0 1.334 0.267 1.866 0.8 0.564 0.504 0.846 1.141 0.846 1.911v23.956l-0.978-0.756h12.578z"></path>
<path d="M320.73 0.445c2.134 0 4.030 0.4 5.688 1.2 1.66 0.8 3.052 1.926 4.178 3.378 1.156 1.422 2.016 3.081 2.578 4.978 0.592 1.867 0.89 3.867 0.89 6 0 2.874-0.52 5.496-1.556 7.867-1.038 2.341-2.548 4.207-4.534 5.6-1.956 1.393-4.37 2.089-7.244 2.089h-10.622c-0.77 0-1.422-0.252-1.956-0.755-0.504-0.533-0.756-1.185-0.756-1.956v-25.689c0-0.77 0.252-1.407 0.756-1.911 0.534-0.533 1.186-0.8 1.956-0.8h10.622zM320.286 26.445c1.866 0 3.392-0.474 4.578-1.422 1.184-0.978 2.044-2.252 2.576-3.822 0.564-1.6 0.846-3.333 0.846-5.2 0-1.393-0.164-2.711-0.49-3.956-0.296-1.274-0.77-2.385-1.422-3.333-0.652-0.978-1.482-1.748-2.488-2.311-1.008-0.563-2.208-0.844-3.6-0.844h-7.778l0.444-0.4v21.778l-0.266-0.489h7.6z"></path>
<path d="M275.74 0.445h14.888c0.77 0 1.408 0.252 1.912 0.756 0.532 0.474 0.8 1.096 0.8 1.867 0 0.741-0.268 1.348-0.8 1.822-0.504 0.444-1.142 0.667-1.912 0.667h-12.444l0.4-0.756v8.667l-0.356-0.356h10.4c0.77 0 1.408 0.252 1.912 0.756 0.532 0.474 0.8 1.096 0.8 1.867 0 0.741-0.268 1.348-0.8 1.822-0.504 0.444-1.142 0.667-1.912 0.667h-10.266l0.222-0.356v8.978l-0.356-0.4h12.4c0.77 0 1.408 0.267 1.912 0.8 0.532 0.504 0.8 1.096 0.8 1.778 0 0.741-0.268 1.348-0.8 1.822-0.504 0.474-1.142 0.711-1.912 0.711h-14.888c-0.77 0-1.422-0.252-1.956-0.755-0.504-0.533-0.756-1.185-0.756-1.956v-25.689c0-0.77 0.252-1.407 0.756-1.911 0.534-0.533 1.186-0.8 1.956-0.8z"></path>
<path d="M256.294 26.356c0.77 0 1.408 0.252 1.912 0.756 0.532 0.474 0.8 1.096 0.8 1.867 0 0.741-0.268 1.363-0.8 1.867-0.504 0.474-1.142 0.711-1.912 0.711h-14.444c-0.77 0-1.422-0.252-1.956-0.755-0.504-0.533-0.756-1.185-0.756-1.956v-25.689c0-0.77 0.268-1.407 0.8-1.911 0.534-0.533 1.216-0.8 2.046-0.8 0.71 0 1.332 0.267 1.866 0.8 0.562 0.504 0.844 1.141 0.844 1.911v23.956l-0.978-0.756h12.578z"></path>
<path d="M223.552 0.311c0.68 0 1.288 0.267 1.822 0.8 0.562 0.504 0.844 1.156 0.844 1.956 0 0.267-0.044 0.548-0.134 0.844-0.058 0.267-0.178 0.533-0.354 0.8l-10.090 14.444 0.8-3.067v12.756c0 0.77-0.266 1.422-0.8 1.956-0.504 0.504-1.096 0.756-1.778 0.756-0.74 0-1.378-0.252-1.91-0.756-0.504-0.533-0.756-1.185-0.756-1.956v-12.4l0.356 1.422-9.6-12.756c-0.296-0.385-0.504-0.756-0.622-1.111-0.12-0.356-0.178-0.681-0.178-0.978 0-0.8 0.31-1.452 0.932-1.956s1.26-0.756 1.912-0.756c0.83 0 1.556 0.415 2.178 1.244l8.532 11.778-1.244-0.178 7.868-11.511c0.622-0.889 1.362-1.333 2.222-1.333z"></path>
<path d="M177.074 31.556c-0.83 0-1.511-0.252-2.044-0.755-0.533-0.533-0.8-1.185-0.8-1.956v-25.778h5.778v25.778c0 0.77-0.281 1.422-0.844 1.956-0.533 0.504-1.23 0.755-2.089 0.755zM167.252 5.556c-0.77 0-1.422-0.237-1.956-0.711-0.504-0.474-0.756-1.096-0.756-1.867s0.252-1.378 0.756-1.822c0.533-0.474 1.185-0.711 1.956-0.711h19.733c0.77 0 1.407 0.237 1.911 0.711 0.533 0.474 0.8 1.096 0.8 1.867s-0.267 1.393-0.8 1.867c-0.504 0.444-1.141 0.667-1.911 0.667h-19.733z"></path>
<path d="M141.089 32c-2.074 0-3.941-0.252-5.6-0.756-1.659-0.533-3.244-1.452-4.756-2.756-0.385-0.326-0.681-0.696-0.889-1.111s-0.311-0.83-0.311-1.244c0-0.682 0.237-1.274 0.711-1.778 0.504-0.533 1.126-0.8 1.867-0.8 0.563 0 1.067 0.178 1.511 0.533 1.126 0.919 2.237 1.615 3.333 2.089 1.126 0.474 2.504 0.711 4.133 0.711 1.096 0 2.104-0.163 3.022-0.489 0.919-0.356 1.659-0.815 2.222-1.378 0.563-0.593 0.844-1.259 0.844-2 0-0.889-0.267-1.644-0.8-2.267s-1.348-1.141-2.444-1.556c-1.096-0.444-2.489-0.785-4.178-1.022-1.6-0.237-3.007-0.593-4.222-1.067-1.215-0.504-2.237-1.126-3.067-1.867-0.8-0.77-1.407-1.659-1.822-2.667-0.415-1.037-0.622-2.193-0.622-3.467 0-1.926 0.489-3.57 1.467-4.933 1.007-1.363 2.356-2.4 4.044-3.111s3.556-1.067 5.6-1.067c1.926 0 3.704 0.296 5.333 0.889 1.659 0.563 3.007 1.289 4.044 2.178 0.859 0.681 1.289 1.467 1.289 2.356 0 0.652-0.252 1.244-0.755 1.778s-1.096 0.8-1.778 0.8c-0.445 0-0.845-0.133-1.2-0.4-0.474-0.415-1.111-0.8-1.911-1.156-0.8-0.385-1.644-0.696-2.533-0.933-0.889-0.267-1.718-0.4-2.489-0.4-1.274 0-2.356 0.163-3.244 0.489-0.859 0.326-1.511 0.77-1.956 1.333s-0.667 1.215-0.667 1.956c0 0.889 0.252 1.63 0.755 2.222 0.533 0.563 1.289 1.022 2.267 1.378 0.978 0.326 2.148 0.622 3.511 0.889 1.778 0.326 3.333 0.711 4.667 1.156 1.363 0.444 2.489 1.022 3.378 1.733 0.889 0.681 1.555 1.556 2 2.622 0.444 1.037 0.667 2.311 0.667 3.822 0 1.926-0.533 3.585-1.6 4.978s-2.474 2.459-4.222 3.2c-1.719 0.741-3.585 1.111-5.6 1.111z"></path>
<path d="M80.678 0.445h16.311c0.356 0 0.667 0.133 0.933 0.4 0.267 0.237 0.4 0.548 0.4 0.933s-0.133 0.696-0.4 0.933c-0.267 0.237-0.578 0.356-0.933 0.356h-15.289l0.445-0.756v12.489l-0.489-0.578h13.333c0.356 0 0.667 0.133 0.933 0.4s0.4 0.578 0.4 0.933c0 0.385-0.133 0.696-0.4 0.933s-0.578 0.356-0.933 0.356h-13.244l0.4-0.444v12.8l-0.222-0.267h15.067c0.356 0 0.667 0.133 0.933 0.4s0.4 0.578 0.4 0.933c0 0.385-0.133 0.696-0.4 0.933s-0.578 0.355-0.933 0.355h-16.311c-0.355 0-0.667-0.133-0.933-0.4s-0.4-0.578-0.4-0.933v-28.445c0-0.356 0.133-0.667 0.4-0.933s0.578-0.4 0.933-0.4z"></path>
<path d="M39.844 0.445c0.356 0 0.667 0.133 0.933 0.4 0.296 0.267 0.444 0.593 0.444 0.978v28.356c-0.030 0.385-0.193 0.711-0.489 0.978-0.267 0.267-0.578 0.4-0.933 0.4-0.415 0-0.756-0.133-1.022-0.4-0.237-0.267-0.356-0.593-0.356-0.978v-28.356c0-0.385 0.133-0.711 0.4-0.978s0.607-0.4 1.022-0.4zM60.689 0.445c0.415 0 0.741 0.133 0.978 0.4 0.267 0.267 0.4 0.593 0.4 0.978v28.356c-0.030 0.385-0.178 0.711-0.445 0.978-0.237 0.267-0.563 0.4-0.978 0.4-0.385 0-0.711-0.133-0.978-0.4s-0.4-0.593-0.4-0.978v-28.356c0-0.385 0.133-0.711 0.4-0.978 0.296-0.267 0.637-0.4 1.022-0.4zM39.622 14.356h21.111l-0.044 2.578h-21.245l0.178-2.578z"></path>
<path d="M11.911 31.556c-0.415 0-0.756-0.133-1.022-0.4-0.237-0.267-0.356-0.578-0.356-0.933v-28.311h2.756v28.311c0 0.356-0.133 0.667-0.4 0.933s-0.593 0.4-0.978 0.4zM1.333 2.978c-0.356 0-0.667-0.119-0.933-0.356s-0.4-0.548-0.4-0.933c0-0.356 0.133-0.652 0.4-0.889s0.578-0.356 0.933-0.356h21.155c0.356 0 0.667 0.119 0.933 0.356s0.4 0.548 0.4 0.933c0 0.385-0.133 0.696-0.4 0.933-0.267 0.207-0.578 0.311-0.933 0.311h-21.155z"></path>
</symbol>
<symbol id="long-arrow" viewBox="0 0 32 32">
<path d="M22.124 13.226h-20.542c-0.217 0-0.424 0.088-0.577 0.243s-0.239 0.367-0.239 0.587v3.876c0 0.22 0.086 0.432 0.239 0.587s0.361 0.243 0.577 0.243h20.542v3.188c0 0.329 0.096 0.65 0.275 0.923s0.434 0.486 0.733 0.612c0.298 0.126 0.627 0.159 0.944 0.095s0.608-0.222 0.836-0.455l5.856-5.956c0.152-0.154 0.272-0.337 0.354-0.539s0.124-0.418 0.124-0.636-0.042-0.434-0.124-0.636c-0.082-0.202-0.202-0.385-0.354-0.539l-5.856-5.956c-0.228-0.232-0.519-0.391-0.836-0.455s-0.645-0.031-0.944 0.095c-0.299 0.126-0.553 0.339-0.733 0.612s-0.275 0.594-0.275 0.923v3.188z"></path>
</symbol>
<symbol id="rss" viewBox="0 0 32 32">
<path d="M9.463 26.695c0 0.861-0.255 1.703-0.734 2.419s-1.159 1.274-1.954 1.604c-0.796 0.329-1.671 0.416-2.516 0.248s-1.62-0.583-2.229-1.192c-0.609-0.609-1.024-1.385-1.192-2.23s-0.082-1.72 0.248-2.516c0.33-0.796 0.888-1.476 1.604-1.954s1.558-0.734 2.419-0.734c1.155 0 2.262 0.459 3.079 1.275s1.275 1.924 1.275 3.079zM21.413 29.911c-0.278-5.087-2.422-9.892-6.024-13.495s-8.406-5.75-13.492-6.030c-0.147-0.007-0.295 0.015-0.433 0.067s-0.265 0.13-0.372 0.232c-0.107 0.102-0.192 0.224-0.25 0.36s-0.088 0.282-0.088 0.43v3.266c-0.001 0.276 0.104 0.542 0.291 0.744s0.446 0.325 0.721 0.345c3.687 0.243 7.16 1.818 9.773 4.431s4.187 6.086 4.431 9.773c0.019 0.275 0.142 0.533 0.345 0.721s0.468 0.292 0.744 0.291h3.266c0.148 0.001 0.294-0.028 0.43-0.085s0.259-0.142 0.361-0.248c0.102-0.106 0.182-0.232 0.234-0.37s0.076-0.285 0.069-0.433l-0.006 0.002zM31.235 29.928c-0.284-7.695-3.468-14.998-8.913-20.444s-12.748-8.629-20.444-8.913c-0.146-0.005-0.291 0.020-0.427 0.073s-0.26 0.132-0.365 0.234c-0.105 0.102-0.188 0.223-0.245 0.358s-0.086 0.279-0.086 0.425v3.266c-0 0.282 0.109 0.554 0.306 0.757s0.464 0.322 0.746 0.332c6.279 0.259 12.23 2.869 16.674 7.312s7.053 10.395 7.312 16.674c0.010 0.282 0.128 0.55 0.332 0.746s0.475 0.306 0.757 0.306h3.266c0.146 0 0.29-0.029 0.425-0.086s0.256-0.14 0.358-0.245c0.102-0.105 0.181-0.229 0.234-0.365s0.077-0.282 0.073-0.427z"></path>
</symbol>
<symbol id="facebook" viewBox="0 0 16 32">
<path d="M10.667 18.286h3.81l1.524-6.095h-5.333v-3.048c0-1.57 0-3.048 3.048-3.048h2.286v-5.12c-0.497-0.066-2.373-0.213-4.354-0.213-4.137 0-7.075 2.525-7.075 7.162v4.267h-4.571v6.095h4.571v12.952h6.095v-12.952z"></path>
</symbol>
<symbol id="insta" viewBox="0 0 32 32">
<path d="M17.567 0.762c1.714 0.005 2.584 0.014 3.336 0.035l0.296 0.011c0.341 0.012 0.678 0.027 1.085 0.046 1.621 0.076 2.728 0.332 3.698 0.709 1.006 0.387 1.853 0.911 2.7 1.757 0.775 0.762 1.374 1.683 1.757 2.7 0.376 0.971 0.632 2.077 0.709 3.7 0.018 0.405 0.034 0.742 0.046 1.085l0.009 0.296c0.023 0.75 0.032 1.62 0.035 3.334l0.002 1.137v1.996c0.004 1.112-0.008 2.223-0.035 3.334l-0.009 0.296c-0.012 0.343-0.027 0.68-0.046 1.085-0.076 1.623-0.335 2.728-0.71 3.7-0.381 1.018-0.981 1.939-1.757 2.7-0.762 0.774-1.683 1.374-2.7 1.757-0.971 0.376-2.077 0.632-3.698 0.709-0.362 0.017-0.723 0.032-1.085 0.046l-0.296 0.009c-0.751 0.021-1.621 0.032-3.336 0.035l-3.131 0.002c-1.112 0.004-2.224-0.008-3.336-0.035l-0.296-0.009c-0.362-0.014-0.723-0.029-1.085-0.047-1.621-0.076-2.728-0.332-3.7-0.709-1.017-0.382-1.938-0.982-2.699-1.757-0.776-0.762-1.376-1.683-1.758-2.7-0.376-0.971-0.632-2.077-0.709-3.7-0.017-0.362-0.032-0.723-0.046-1.085l-0.008-0.296c-0.028-1.111-0.041-2.223-0.038-3.334v-3.133c-0.004-1.111 0.007-2.223 0.034-3.334l0.011-0.296c0.012-0.343 0.027-0.68 0.046-1.085 0.076-1.623 0.332-2.728 0.709-3.7 0.383-1.018 0.984-1.94 1.762-2.7 0.761-0.775 1.681-1.375 2.697-1.757 0.972-0.376 2.077-0.632 3.7-0.709 0.405-0.018 0.744-0.034 1.085-0.046l0.296-0.009c1.111-0.027 2.223-0.039 3.334-0.035l3.133-0.002zM16 8.381c-2.021 0-3.959 0.803-5.387 2.232s-2.232 3.367-2.232 5.388c0 2.021 0.803 3.959 2.232 5.387s3.367 2.232 5.387 2.232c2.021 0 3.959-0.803 5.388-2.232s2.232-3.367 2.232-5.387c0-2.021-0.803-3.959-2.232-5.388s-3.367-2.232-5.388-2.232zM16 11.429c0.6-0 1.195 0.118 1.75 0.348s1.059 0.566 1.483 0.991c0.425 0.424 0.761 0.928 0.991 1.483s0.348 1.149 0.348 1.749c0 0.6-0.118 1.195-0.348 1.75s-0.566 1.059-0.991 1.483-0.928 0.761-1.483 0.991c-0.555 0.23-1.149 0.348-1.749 0.348-1.212 0-2.375-0.482-3.233-1.339s-1.339-2.020-1.339-3.232c0-1.212 0.482-2.375 1.339-3.233s2.020-1.339 3.233-1.339zM24.002 6.095c-0.505 0-0.99 0.201-1.347 0.558s-0.558 0.842-0.558 1.347 0.201 0.99 0.558 1.347c0.357 0.357 0.842 0.558 1.347 0.558s0.99-0.201 1.347-0.558c0.357-0.357 0.558-0.842 0.558-1.347s-0.201-0.99-0.558-1.347c-0.357-0.357-0.842-0.558-1.347-0.558z"></path>
</symbol>
<symbol id="x" viewBox="0 0 32 32">
<path d="M24.759 2.217h4.674l-10.211 11.671 12.013 15.879h-9.406l-7.366-9.632-8.43 9.632h-4.676l10.922-12.484-11.524-15.065h9.644l6.659 8.804 7.701-8.805zM23.119 26.971h2.59l-16.717-22.103h-2.779l16.906 22.103z"></path>
</symbol>
<symbol id="mail" viewBox="0 0 32 32">
<path d="M3.81 28.191c-0.838 0-1.555-0.298-2.152-0.895s-0.895-1.314-0.896-2.153v-18.286c0-0.838 0.299-1.555 0.896-2.152s1.315-0.895 2.152-0.896h24.381c0.838 0 1.556 0.299 2.153 0.896s0.895 1.315 0.895 2.152v18.286c0 0.838-0.298 1.556-0.895 2.153s-1.314 0.896-2.153 0.895h-24.381zM16 17.524l12.191-7.619v-3.048l-12.191 7.619-12.19-7.619v3.048l12.19 7.619z"></path>
</symbol>
<symbol id="search" viewBox="0 0 32 32">
<path d="M13.123 0.766c2.303-0 4.561 0.644 6.518 1.858s3.535 2.952 4.557 5.017c1.022 2.064 1.446 4.373 1.226 6.666s-1.078 4.478-2.474 6.31l7.815 7.818c0.296 0.296 0.467 0.694 0.48 1.113s-0.134 0.826-0.411 1.14c-0.277 0.314-0.663 0.511-1.080 0.55s-0.833-0.081-1.164-0.337l-0.155-0.137-7.818-7.815c-1.56 1.19-3.381 1.991-5.313 2.337s-3.918 0.227-5.794-0.346-3.589-1.586-4.997-2.954c-1.407-1.367-2.469-3.050-3.097-4.909s-0.804-3.841-0.514-5.781c0.29-1.941 1.038-3.784 2.182-5.378s2.651-2.893 4.397-3.789c1.746-0.896 3.68-1.363 5.642-1.363zM13.123 4.061c-2.403 0-4.708 0.955-6.408 2.654s-2.654 4.004-2.654 6.408c0 2.403 0.955 4.708 2.654 6.408s4.004 2.654 6.408 2.654c2.403 0 4.708-0.955 6.408-2.654s2.654-4.004 2.654-6.408-0.955-4.708-2.654-6.408c-1.7-1.699-4.004-2.654-6.408-2.654z"></path>
</symbol>
<symbol id="burger" viewBox="0 0 32 32">
<path d="M31.188 26.633v3.036c0 0.411-0.125 0.767-0.375 1.067s-0.547 0.451-0.89 0.451h-27.833c-0.343 0-0.639-0.15-0.89-0.451s-0.376-0.656-0.376-1.067v-3.036c0-0.411 0.125-0.767 0.376-1.067s0.547-0.451 0.89-0.451h27.833c0.343 0 0.639 0.15 0.89 0.451s0.375 0.656 0.375 1.067zM31.188 14.488v3.036c0 0.411-0.125 0.767-0.375 1.067s-0.547 0.451-0.89 0.451h-27.833c-0.343 0-0.639-0.15-0.89-0.451s-0.376-0.656-0.376-1.067v-3.036c0-0.411 0.125-0.767 0.376-1.067s0.547-0.451 0.89-0.451h27.833c0.343 0 0.639 0.15 0.89 0.451s0.375 0.656 0.375 1.067zM31.188 2.343v3.036c0 0.411-0.125 0.767-0.375 1.067s-0.547 0.451-0.89 0.451h-27.833c-0.343 0-0.639-0.15-0.89-0.451s-0.376-0.656-0.376-1.067v-3.036c0-0.411 0.125-0.767 0.376-1.067s0.547-0.451 0.89-0.451h27.833c0.343 0 0.639 0.15 0.89 0.451s0.375 0.656 0.375 1.067z"></path>
</symbol>
<symbol id="close" viewBox="0 0 32 32">
<path d="M16.017 20.108l10.253 10.253c0.544 0.544 1.282 0.85 2.051 0.85s1.507-0.306 2.051-0.85c0.544-0.544 0.85-1.282 0.85-2.051s-0.306-1.507-0.85-2.051l-10.257-10.253 10.255-10.253c0.269-0.269 0.483-0.589 0.628-0.941s0.221-0.729 0.221-1.11-0.075-0.758-0.221-1.11c-0.146-0.352-0.36-0.672-0.629-0.941s-0.589-0.483-0.941-0.628-0.729-0.221-1.11-0.221c-0.381 0-0.758 0.075-1.11 0.221s-0.672 0.36-0.941 0.629l-10.251 10.253-10.253-10.253c-0.267-0.277-0.587-0.498-0.941-0.65s-0.734-0.232-1.119-0.236c-0.385-0.004-0.767 0.070-1.123 0.215s-0.68 0.361-0.953 0.633c-0.272 0.272-0.488 0.596-0.634 0.952s-0.22 0.738-0.216 1.123c0.003 0.385 0.083 0.766 0.235 1.12s0.373 0.674 0.649 0.942l10.257 10.255-10.255 10.255c-0.277 0.268-0.498 0.588-0.649 0.942s-0.232 0.734-0.235 1.12c-0.003 0.385 0.070 0.767 0.216 1.123s0.362 0.68 0.634 0.952c0.272 0.272 0.596 0.487 0.953 0.633s0.738 0.219 1.123 0.215 0.766-0.084 1.119-0.236c0.354-0.152 0.674-0.373 0.941-0.65l10.251-10.251z"></path>
</symbol>
<symbol id="close-thin" viewBox="0 0 32 32">
<path d="M30.602 27.524c0.409 0.409 0.639 0.963 0.639 1.541s-0.23 1.133-0.639 1.541c-0.409 0.409-0.963 0.638-1.541 0.638s-1.133-0.23-1.541-0.638l-11.514-11.518-11.518 11.514c-0.409 0.409-0.963 0.639-1.542 0.639s-1.133-0.23-1.542-0.639c-0.409-0.409-0.638-0.963-0.638-1.541s0.23-1.133 0.638-1.541l11.518-11.514-11.514-11.518c-0.409-0.409-0.638-0.963-0.638-1.542s0.23-1.133 0.638-1.542c0.409-0.409 0.963-0.638 1.542-0.638s1.133 0.23 1.542 0.638l11.514 11.518 11.518-11.519c0.409-0.409 0.963-0.638 1.541-0.638s1.133 0.23 1.541 0.638c0.409 0.409 0.639 0.963 0.639 1.542s-0.23 1.133-0.639 1.542l-11.518 11.519 11.514 11.518z"></path>
</symbol>
<symbol id="arrow-left" viewBox="0 0 32 32">
<path d="M24 32v-32l-16 16 16 16z"></path>
</symbol>
<symbol id="arrow-right" viewBox="0 0 32 32">
<path d="M8 0v32l16-16-16-16z"></path>
</symbol>
</defs>
</svg>
